<svg preserveAspectRatio="none" width="100%" height="100%" overflow="visible" style="display: block;" viewBox="0 0 40 40" fill="none" xmlns="http://www.w3.org/2000/svg">
<g id="autorenew">
<mask id="mask0_0_5" style="mask-type:alpha" maskUnits="userSpaceOnUse" x="0" y="0" width="40" height="40">
<rect id="Bounding box" width="40" height="40" transform="matrix(-1 0 0 1 40 0)" fill="var(--fill-0, #D9D9D9)"/>
</mask>
<g mask="url(#mask0_0_5)">
<path id="autorenew_2" d="M31.7221 26.3887C32.2963 25.3704 32.7083 24.3381 32.9583 23.2917C33.2083 22.2453 33.3333 21.1758 33.3333 20.0833C33.3333 16.4167 32.0278 13.2732 29.4167 10.6529C26.8056 8.03236 23.6667 6.72208 20 6.72208H18.7083L21.8196 3.61125L19.9583 1.75L13.5971 8.11125L19.9583 14.4721L21.8471 12.5833L18.7638 9.5H20C22.9075 9.5 25.3936 10.5347 27.4583 12.6042C29.5231 14.6736 30.5554 17.1667 30.5554 20.0833C30.5554 20.8611 30.4768 21.6065 30.3196 22.3196C30.1621 23.0324 29.9538 23.7129 29.6946 24.3613L31.7221 26.3887ZM20.0971 38.3333L26.4583 31.9721L20.0971 25.6113L18.2363 27.4721L21.3471 30.5833H20C17.0925 30.5833 14.6064 29.5486 12.5417 27.4792C10.4769 25.4097 9.44458 22.9167 9.44458 20C9.44458 19.2222 9.51861 18.4768 9.66667 17.7638C9.81472 17.051 10.0369 16.3704 10.3333 15.7221L8.30542 13.6946C7.73153 14.7129 7.31486 15.7453 7.05542 16.7917C6.79625 17.8381 6.66667 18.9075 6.66667 20C6.66667 23.6667 7.97222 26.8101 10.5833 29.4304C13.1944 32.051 16.3333 33.3612 20 33.3612H21.3471L18.2363 36.4721L20.0971 38.3333Z" fill="var(--fill-0, #1C1B1F)"/>
</g>
</g>
</svg>
