<svg preserveAspectRatio="none" width="100%" height="100%" overflow="visible" style="display: block;" viewBox="0 0 840.29 95.7674" fill="none" xmlns="http://www.w3.org/2000/svg">
<path id="Arrow 6" d="M6.2196 95.4937C6.58448 95.8586 7.17605 95.8586 7.54092 95.4937L13.4869 89.5477C13.8517 89.1829 13.8517 88.5913 13.4869 88.2264C13.122 87.8616 12.5304 87.8616 12.1656 88.2264L6.88026 93.5117L1.59498 88.2264C1.2301 87.8616 0.638527 87.8616 0.273654 88.2264C-0.0912185 88.5913 -0.0912185 89.1829 0.273654 89.5477L6.2196 95.4937ZM806.187 0.934316V1.86863H824.406V0.934316V0H806.187V0.934316ZM6.88026 67.2707H5.94595V94.833H6.88026H7.81458V67.2707H6.88026ZM839.355 15.8834H838.421V37.3726H839.355H840.29V15.8834H839.355ZM824.406 52.3217V51.3874H21.8293V52.3217V53.256H824.406V52.3217ZM839.355 37.3726H838.421C838.421 45.1127 832.146 51.3874 824.406 51.3874V52.3217V53.256C833.178 53.256 840.29 46.1448 840.29 37.3726H839.355ZM6.88026 67.2707H7.81458C7.81458 59.5306 14.0892 53.256 21.8293 53.256V52.3217V51.3874C13.0572 51.3874 5.94595 58.4986 5.94595 67.2707H6.88026ZM824.406 0.934316V1.86863C832.146 1.86863 838.421 8.14324 838.421 15.8834H839.355H840.29C840.29 7.11123 833.178 0 824.406 0V0.934316Z" fill="var(--stroke-0, #04165D)"/>
</svg>
