<svg preserveAspectRatio="none" width="100%" height="100%" overflow="visible" style="display: block;" viewBox="0 0 899.364 102.5" fill="none" xmlns="http://www.w3.org/2000/svg">
<path id="Arrow 6" d="M6.65685 102.207C7.04738 102.598 7.68054 102.598 8.07107 102.207L14.435 95.8431C14.8256 95.4526 14.8256 94.8195 14.435 94.4289C14.0445 94.0384 13.4113 94.0384 13.0208 94.4289L7.36396 100.086L1.70711 94.4289C1.31658 94.0384 0.683418 94.0384 0.292893 94.4289C-0.097631 94.8195 -0.097631 95.4526 0.292893 95.8431L6.65685 102.207ZM862.864 1V2H882.364V1V0H862.864V1ZM7.36396 72H6.36396V101.5H7.36396H8.36396V72H7.36396ZM898.364 17H897.364V40H898.364H899.364V17H898.364ZM882.364 56V55H23.3639V56V57H882.364V56ZM898.364 40H897.364C897.364 48.2843 890.648 55 882.364 55V56V57C891.753 57 899.364 49.3888 899.364 40H898.364ZM7.36396 72H8.36396C8.36396 63.7157 15.0797 57 23.3639 57V56V55C13.9751 55 6.36396 62.6112 6.36396 72H7.36396ZM882.364 1V2C890.648 2 897.364 8.71573 897.364 17H898.364H899.364C899.364 7.61116 891.753 0 882.364 0V1Z" fill="var(--stroke-0, #04165D)"/>
</svg>
