<svg preserveAspectRatio="none" width="100%" height="100%" overflow="visible" style="display: block;" viewBox="0 0 40 40" fill="none" xmlns="http://www.w3.org/2000/svg">
<g id="autorenew">
<mask id="mask0_0_5" style="mask-type:alpha" maskUnits="userSpaceOnUse" x="0" y="0" width="40" height="40">
<rect id="Bounding box" width="40" height="40" transform="matrix(-1 0 0 1 40 0)" fill="var(--fill-0, #D9D9D9)"/>
</mask>
<g mask="url(#mask0_0_5)">
<path id="autorenew_2" d="M8.31087 13.7285C7.74463 14.7377 7.33249 15.7605 7.07552 16.7969C6.8168 17.8415 6.68783 18.9092 6.68783 20C6.68783 23.6611 7.99073 26.7996 10.598 29.416C13.2052 32.0326 16.3393 33.3408 20.0003 33.3408H21.3978L21.3617 33.376L18.266 36.4717L20.098 38.3027L26.429 31.9717L20.098 25.6396L18.266 27.4717L21.3617 30.5684L21.3978 30.6045H20.0003C17.0873 30.6045 14.5953 29.5675 12.5267 27.4941C10.4581 25.4208 9.42416 22.9222 9.42416 20C9.42416 19.221 9.49752 18.4742 9.64584 17.7598C9.79322 17.0502 10.0148 16.3725 10.3089 15.7266L8.31087 13.7285ZM13.6273 8.11035L19.9583 14.4424L21.8177 12.583L18.7494 9.51465L18.7132 9.47949H20.0003C22.9133 9.47957 25.4045 10.5166 27.473 12.5898C29.5414 14.6631 30.5764 17.161 30.5765 20.083C30.5765 20.8622 30.4977 21.6096 30.3402 22.3242C30.1835 23.0331 29.9762 23.7101 29.7191 24.3555L31.7171 26.3535C32.2831 25.3448 32.6903 24.3229 32.9378 23.2871C33.1874 22.2423 33.3128 21.1739 33.3128 20.083C33.3128 16.4221 32.0088 13.2843 29.4017 10.668C26.7945 8.05137 23.6613 6.74324 20.0003 6.74316H18.6576L21.7904 3.61035L19.9583 1.7793L13.6273 8.11035Z" fill="var(--fill-0, #2F3237)" stroke="var(--stroke-0, #2F3237)" stroke-width="0.0416667"/>
</g>
</g>
</svg>
