<svg preserveAspectRatio="none" width="100%" height="100%" overflow="visible" style="display: block;" viewBox="0 0 32 32" fill="none" xmlns="http://www.w3.org/2000/svg">
<g id="accessible">
<mask id="mask0_0_55" style="mask-type:alpha" maskUnits="userSpaceOnUse" x="0" y="0" width="32" height="32">
<rect id="Bounding box" width="32" height="32" fill="var(--fill-0, #D9D9D9)"/>
</mask>
<g mask="url(#mask0_0_55)">
<path id="accessible_2" d="M14.1467 6.595C13.6122 6.05855 13.345 5.408 13.345 4.64333C13.345 3.89133 13.6152 3.24511 14.1557 2.70467C14.6959 2.16444 15.3421 1.89433 16.0943 1.89433C16.8463 1.89433 17.4927 2.16444 18.0333 2.70467C18.574 3.24511 18.8443 3.89133 18.8443 4.64333C18.8443 5.408 18.5773 6.05855 18.0433 6.595C17.5091 7.13167 16.8598 7.4 16.0953 7.4C15.3307 7.4 14.6811 7.13167 14.1467 6.595ZM22.8967 29.3333V22.4667H16.6473C15.7453 22.4667 14.9836 22.156 14.362 21.5347C13.7407 20.9131 13.43 20.1513 13.43 19.2493V11.6967C13.43 10.9518 13.6893 10.3236 14.208 9.812C14.7267 9.30022 15.3534 9.04433 16.0883 9.04433C16.5566 9.04433 16.9688 9.13211 17.325 9.30767C17.6812 9.48322 18.0976 9.83533 18.574 10.364C19.5593 11.4216 20.6364 12.2897 21.8053 12.9683C22.974 13.647 24.24 14.0258 25.6033 14.1047V16.5783C24.5096 16.5614 23.3643 16.311 22.1677 15.827C20.9708 15.343 19.8564 14.7004 18.8247 13.8993V19.242H22.63C23.4544 19.242 24.156 19.5313 24.7347 20.11C25.3131 20.6884 25.6023 21.39 25.6023 22.2147V29.3333H22.8967ZM13.1137 29.5657C11.2092 29.5657 9.59889 28.9077 8.28267 27.5917C6.96667 26.2754 6.30867 24.6651 6.30867 22.7607C6.30867 21.1704 6.86789 19.7143 7.98633 18.3923C9.105 17.0703 10.5492 16.2991 12.319 16.0787V18.8517C11.3141 19.0186 10.5158 19.4852 9.924 20.2517C9.33244 21.0181 9.03667 21.8513 9.03667 22.7513C9.03667 23.9251 9.425 24.9064 10.2017 25.6953C10.9781 26.4842 11.9504 26.8787 13.1187 26.8787C14.0164 26.8787 14.8514 26.5798 15.6237 25.982C16.3959 25.384 16.8636 24.5826 17.0267 23.5777H19.8143C19.609 25.341 18.8384 26.7799 17.5027 27.8943C16.1669 29.0086 14.7039 29.5657 13.1137 29.5657Z" fill="var(--fill-0, #04165D)"/>
</g>
</g>
</svg>
