<svg preserveAspectRatio="none" width="100%" height="100%" overflow="visible" style="display: block;" viewBox="0 0 32 32" fill="none" xmlns="http://www.w3.org/2000/svg">
<g id="account_circle">
<mask id="mask0_0_116" style="mask-type:alpha" maskUnits="userSpaceOnUse" x="0" y="0" width="32" height="32">
<rect id="Bounding box" width="32" height="32" fill="var(--fill-0, #D9D9D9)"/>
</mask>
<g mask="url(#mask0_0_116)">
<path id="account_circle_2" d="M7.615 23.0343C8.91767 22.1188 10.2532 21.4119 11.6217 20.9137C12.9901 20.4157 14.4504 20.1667 16.0027 20.1667C17.5549 20.1667 19.025 20.4221 20.413 20.933C21.801 21.4437 23.1324 22.1462 24.4073 23.0407C25.2891 21.9244 25.9288 20.7968 26.3263 19.6577C26.7239 18.5188 26.9227 17.2996 26.9227 16C26.9227 12.9316 25.8696 10.344 23.7633 8.23733C21.6571 6.13067 19.0701 5.07733 16.0023 5.07733C12.9343 5.07733 10.3466 6.13067 8.239 8.23733C6.13122 10.344 5.07733 12.9316 5.07733 16C5.07733 17.2947 5.27678 18.5104 5.67567 19.6473C6.07456 20.7842 6.721 21.9132 7.615 23.0343ZM12.6327 15.8997C11.7271 14.9954 11.2743 13.8764 11.2743 12.5427C11.2743 11.2087 11.7271 10.0864 12.6327 9.176C13.538 8.26578 14.6604 7.81067 16 7.81067C17.3396 7.81067 18.462 8.26578 19.3673 9.176C20.2729 10.0864 20.7257 11.2087 20.7257 12.5427C20.7257 13.8764 20.2729 14.9954 19.3673 15.8997C18.462 16.8037 17.3396 17.2557 16 17.2557C14.6604 17.2557 13.538 16.8037 12.6327 15.8997ZM15.9937 29.861C14.097 29.861 12.3067 29.4982 10.6227 28.7727C8.93867 28.0471 7.46656 27.0543 6.20633 25.7943C4.94611 24.5343 3.95311 23.0624 3.22733 21.3787C2.50178 19.6949 2.139 17.902 2.139 16C2.139 14.0927 2.50267 12.2981 3.23 10.6163C3.95711 8.93455 4.94956 7.46489 6.20733 6.20733C7.46489 4.94955 8.93578 3.955 10.62 3.22367C12.3042 2.49233 14.0976 2.12667 16 2.12667C17.9073 2.12667 19.7019 2.49233 21.3837 3.22367C23.0654 3.955 24.5351 4.94955 25.7927 6.20733C27.0504 7.46489 28.045 8.93455 28.7763 10.6163C29.5077 12.2981 29.8733 14.0948 29.8733 16.0063C29.8733 17.903 29.5077 19.6938 28.7763 21.3787C28.045 23.0638 27.0504 24.5351 25.7927 25.7927C24.5351 27.0504 23.0654 28.0429 21.3837 28.77C19.7019 29.4973 17.9052 29.861 15.9937 29.861ZM19.3303 26.4357C20.3894 26.111 21.4412 25.5659 22.4857 24.8003C21.4243 24.0732 20.3699 23.5282 19.3223 23.1653C18.275 22.8027 17.1676 22.6213 16 22.6213C14.8324 22.6213 13.7281 22.8027 12.687 23.1653C11.6457 23.5282 10.5944 24.0732 9.53333 24.8003C10.5778 25.5659 11.6263 26.111 12.679 26.4357C13.7317 26.7603 14.8387 26.9227 16 26.9227C17.1613 26.9227 18.2714 26.7603 19.3303 26.4357ZM17.616 14.1593C18.0402 13.74 18.2523 13.2011 18.2523 12.5427C18.2523 11.884 18.0402 11.3419 17.616 10.9163C17.192 10.4906 16.6533 10.2777 16 10.2777C15.3467 10.2777 14.808 10.4906 14.384 10.9163C13.9598 11.3419 13.7477 11.884 13.7477 12.5427C13.7477 13.2011 13.9598 13.74 14.384 14.1593C14.808 14.5787 15.3467 14.7883 16 14.7883C16.6533 14.7883 17.192 14.5787 17.616 14.1593Z" fill="var(--fill-0, #04165D)"/>
</g>
</g>
</svg>
