<svg preserveAspectRatio="none" width="100%" height="100%" overflow="visible" style="display: block;" viewBox="0 0 40 40" fill="none" xmlns="http://www.w3.org/2000/svg">
<g id="assignment">
<mask id="mask0_0_86" style="mask-type:alpha" maskUnits="userSpaceOnUse" x="0" y="0" width="40" height="40">
<rect id="Bounding box" width="40" height="40" fill="var(--fill-0, #D9D9D9)"/>
</mask>
<g mask="url(#mask0_0_86)">
<path id="assignment_2" d="M8.01343 35.6595C7.00343 35.6595 6.13885 35.2998 5.41968 34.5804C4.70024 33.8612 4.34052 32.9966 4.34052 31.9866V8.0133C4.34052 6.99885 4.70024 6.13052 5.41968 5.4083C6.13885 4.68607 7.00343 4.32496 8.01343 4.32496H15.3897C15.7019 3.33302 16.278 2.52941 17.118 1.91413C17.958 1.29913 18.9187 0.991631 20.0001 0.991631C21.0815 0.991631 22.0422 1.29913 22.8822 1.91413C23.7222 2.52941 24.2983 3.33302 24.6105 4.32496H31.9868C33.0012 4.32496 33.8695 4.68607 34.5918 5.4083C35.314 6.13052 35.6751 6.99885 35.6751 8.0133V31.9866C35.6751 32.9966 35.314 33.8612 34.5918 34.5804C33.8695 35.2998 33.0012 35.6595 31.9868 35.6595H8.01343ZM8.01343 31.9866H31.9868V8.0133H8.01343V31.9866ZM11.9022 28.0979H23.0839V25.32H11.9022V28.0979ZM11.9022 21.3887H28.098V18.6112H11.9022V21.3887ZM11.9022 14.68H28.098V11.902H11.9022V14.68ZM21.093 6.59288C21.395 6.29094 21.5459 5.92663 21.5459 5.49996C21.5459 5.0733 21.395 4.70899 21.093 4.40705C20.7911 4.1051 20.4268 3.95413 20.0001 3.95413C19.5734 3.95413 19.2091 4.1051 18.9072 4.40705C18.6052 4.70899 18.4543 5.0733 18.4543 5.49996C18.4543 5.92663 18.6052 6.29094 18.9072 6.59288C19.2091 6.89482 19.5734 7.0458 20.0001 7.0458C20.4268 7.0458 20.7911 6.89482 21.093 6.59288Z" fill="var(--fill-0, white)"/>
</g>
</g>
</svg>
