<svg preserveAspectRatio="none" width="100%" height="100%" overflow="visible" style="display: block;" viewBox="0 0 32 32" fill="none" xmlns="http://www.w3.org/2000/svg">
<g id="cards_stack">
<mask id="mask0_0_58" style="mask-type:alpha" maskUnits="userSpaceOnUse" x="0" y="0" width="32" height="32">
<rect id="Bounding box" width="32" height="32" fill="var(--fill-0, #D9D9D9)"/>
</mask>
<g mask="url(#mask0_0_58)">
<path id="cards_stack_2" d="M4.40133 26.6437L2.62467 13.6827C2.518 12.8929 2.71033 12.1768 3.20167 11.5343C3.693 10.8919 4.33967 10.5236 5.14167 10.4293L7.35567 26.2807L21.0563 24.6387H26.0323C26.0568 25.3151 25.8556 25.9009 25.4287 26.396C25.0016 26.8911 24.4512 27.1803 23.7777 27.2637L7.68467 29.1827C6.88911 29.2767 6.17311 29.0793 5.53667 28.5907C4.9 28.1022 4.52156 27.4532 4.40133 26.6437ZM10.343 22.376C9.53322 22.376 8.84111 22.0887 8.26667 21.514C7.692 20.9396 7.40467 20.2474 7.40467 19.4377V6.41067C7.40467 5.59733 7.692 4.90222 8.26667 4.32533C8.84111 3.74844 9.53322 3.46 10.343 3.46H27.6513C28.4522 3.46 29.1421 3.74844 29.721 4.32533C30.2999 4.90222 30.5893 5.59733 30.5893 6.41067V19.4377C30.5893 20.2474 30.2999 20.9396 29.721 21.514C29.1421 22.0887 28.4522 22.376 27.6513 22.376H10.343ZM10.343 19.4377H27.6513V6.41067H10.343V19.4377ZM13.6577 11.8223H24.3243V9.36767H13.6577V11.8223ZM13.6577 16.499H20.302V14.0443H13.6577V16.499Z" fill="var(--fill-0, #04165D)"/>
</g>
</g>
</svg>
