<svg preserveAspectRatio="none" width="100%" height="100%" overflow="visible" style="display: block;" viewBox="0 0 40 40" fill="none" xmlns="http://www.w3.org/2000/svg">
<g id="category_search">
<mask id="mask0_0_74" style="mask-type:alpha" maskUnits="userSpaceOnUse" x="0" y="0" width="40" height="40">
<rect id="Bounding box" width="40" height="40" fill="var(--fill-0, #D9D9D9)"/>
</mask>
<g mask="url(#mask0_0_74)">
<path id="category_search_2" d="M1.76331 35.4721V21.2725H15.9866V35.4721H1.76331ZM5.45164 31.7996H12.3141V24.9608H5.45164V31.7996ZM7.96206 17.4733L18.3062 0.724564L28.6504 17.4733H7.96206ZM14.5591 13.8008H22.0533L18.3062 7.70581L14.5591 13.8008ZM36.7808 39.6016L32.4246 35.2375C31.8018 35.6239 31.1326 35.9216 30.4171 36.1308C29.7018 36.34 28.9498 36.4446 28.1612 36.4446C25.9159 36.4446 24.0198 35.6757 22.4729 34.1379C20.9262 32.6001 20.1529 30.7112 20.1529 28.4712C20.1529 26.2312 20.9259 24.3372 22.4721 22.7891C24.0184 21.2408 25.9139 20.4666 28.1583 20.4666C30.403 20.4666 32.2955 21.2401 33.8358 22.7871C35.3761 24.3337 36.1462 26.2298 36.1462 28.4754C36.1462 29.2398 36.0494 29.965 35.8558 30.6508C35.6622 31.3366 35.3837 31.9816 35.0204 32.5858L39.4046 36.9933L36.7808 39.6016ZM31.2129 31.5246C32.0429 30.6932 32.4579 29.676 32.4579 28.4729C32.4579 27.2698 32.0421 26.2496 31.2104 25.4121C30.379 24.5743 29.3618 24.1554 28.1587 24.1554C26.9559 24.1554 25.9357 24.575 25.0979 25.4141C24.2601 26.2536 23.8412 27.2747 23.8412 28.4775C23.8412 29.6805 24.2608 30.6971 25.1 31.5271C25.9394 32.3568 26.9607 32.7716 28.1637 32.7716C29.3665 32.7716 30.3829 32.356 31.2129 31.5246Z" fill="var(--fill-0, white)"/>
</g>
</g>
</svg>
