<svg preserveAspectRatio="none" width="100%" height="100%" overflow="visible" style="display: block;" viewBox="0 0 32 32" fill="none" xmlns="http://www.w3.org/2000/svg">
<g id="checkbook">
<mask id="mask0_0_98" style="mask-type:alpha" maskUnits="userSpaceOnUse" x="0" y="0" width="32" height="32">
<rect id="Bounding box" width="32" height="32" fill="var(--fill-0, #D9D9D9)"/>
</mask>
<g mask="url(#mask0_0_98)">
<path id="checkbook_2" d="M8.015 19.6193H18.7213L20.9437 17.397H8.015V19.6193ZM8.015 14.0303H15.815V11.8083H8.015V14.0303ZM5.07733 8.845V22.6493H15.6913L12.731 25.6097H2.139V5.89433H29.8733V11.4367H26.9227V8.845H5.07733ZM30.9947 15.8443C31.1811 16.0308 31.2743 16.2562 31.2743 16.5207C31.2743 16.7851 31.1811 17.0064 30.9947 17.1847L29.829 18.369L27.4377 15.9777L28.648 14.7487C28.826 14.5707 29.0344 14.4817 29.2733 14.4817C29.5124 14.4817 29.721 14.5707 29.899 14.7487L30.9947 15.8443ZM17.43 28.358V25.9667L26.5303 16.8787L28.928 19.27L19.84 28.358H17.43Z" fill="var(--fill-0, #04165D)"/>
</g>
</g>
</svg>
