<svg preserveAspectRatio="none" width="100%" height="100%" overflow="visible" style="display: block;" viewBox="0 0 32 32" fill="none" xmlns="http://www.w3.org/2000/svg">
<g id="clinical_notes">
<mask id="mask0_0_89" style="mask-type:alpha" maskUnits="userSpaceOnUse" x="0" y="0" width="32" height="32">
<rect id="Bounding box" width="32" height="32" fill="var(--fill-0, #D9D9D9)"/>
</mask>
<g mask="url(#mask0_0_89)">
<path id="clinical_notes_2" d="M19.798 19.4033C18.9433 18.5453 18.516 17.5036 18.516 16.278C18.516 15.0524 18.9441 14.012 19.8003 13.1567C20.6566 12.3016 21.6962 11.874 22.9193 11.874C24.1424 11.874 25.1838 12.3029 26.0433 13.1607C26.9027 14.0187 27.3323 15.0604 27.3323 16.286C27.3323 17.5118 26.9019 18.5522 26.041 19.4073C25.1801 20.2627 24.1381 20.6903 22.915 20.6903C21.6919 20.6903 20.6529 20.2613 19.798 19.4033ZM24.0723 17.4293C24.3874 17.1136 24.545 16.7288 24.545 16.275C24.545 15.821 24.3871 15.4386 24.0713 15.1277C23.7556 14.8168 23.3708 14.6613 22.917 14.6613C22.4632 14.6613 22.0808 14.8183 21.7697 15.1323C21.4588 15.4463 21.3033 15.829 21.3033 16.2803C21.3033 16.7317 21.4603 17.1149 21.7743 17.43C22.0883 17.7453 22.4711 17.903 22.9227 17.903C23.374 17.903 23.7572 17.7451 24.0723 17.4293ZM14.516 30.7837V26.515C14.516 25.9726 14.6447 25.4624 14.902 24.9847C15.1593 24.5069 15.5178 24.131 15.9773 23.857C16.6616 23.4392 17.3733 23.0883 18.1127 22.8043C18.852 22.5203 19.6167 22.2884 20.4067 22.1087L22.918 25.0903L25.4103 22.1087C26.2003 22.2884 26.9626 22.5203 27.697 22.8043C28.4314 23.0883 29.1408 23.4392 29.825 23.857C30.2837 24.1363 30.6496 24.5111 30.9227 24.9813C31.1958 25.4518 31.3323 25.9567 31.3323 26.496V30.7837H14.516ZM17.2987 27.996H21.7333L19.4807 25.259C19.0929 25.3768 18.7152 25.5179 18.3477 25.6823C17.9799 25.8468 17.6302 26.0312 17.2987 26.2357V27.996ZM24.1023 27.996H28.545L28.614 26.2483C28.2687 26.0281 27.9076 25.8376 27.5307 25.6767C27.1538 25.516 26.7693 25.3768 26.3773 25.259L24.1023 27.996ZM6.41067 28.584C5.58978 28.584 4.89489 28.2983 4.326 27.727C3.75689 27.1557 3.47233 26.4578 3.47233 25.6333V6.45467C3.47233 5.64244 3.75689 4.94967 4.326 4.37633C4.89489 3.803 5.58978 3.51633 6.41067 3.51633H25.5893C26.4138 3.51633 27.1117 3.803 27.683 4.37633C28.2543 4.94967 28.54 5.64244 28.54 6.45467V12.803C28.1749 12.2497 27.7418 11.7658 27.2407 11.3513C26.7396 10.9367 26.1891 10.5962 25.5893 10.33V6.45467H6.41067V25.632H12.3603C12.3381 25.782 12.3214 25.9314 12.3103 26.0803C12.2992 26.2294 12.2937 26.3743 12.2937 26.515V28.584H6.41067ZM9.52167 11.788H18.9293C19.1662 11.528 19.4214 11.2922 19.695 11.0807C19.9686 10.8691 20.2746 10.6733 20.613 10.4933V9.56567H9.52167V11.788ZM9.52167 17.155H16.4003C16.3461 16.7899 16.3228 16.4206 16.3303 16.047C16.3379 15.6732 16.379 15.3019 16.4537 14.933H9.52167V17.155ZM9.52167 22.5223H14.1077C14.4837 22.1881 14.8889 21.909 15.3233 21.685C15.7578 21.4608 16.2069 21.2526 16.6707 21.0603V20.3H9.52167V22.5223ZM6.41067 25.6333V6.45467V10.325V9.65167V25.6333Z" fill="var(--fill-0, #04165D)"/>
</g>
</g>
</svg>
