<svg preserveAspectRatio="none" width="100%" height="100%" overflow="visible" style="display: block;" viewBox="0 0 32 32" fill="none" xmlns="http://www.w3.org/2000/svg">
<g id="cognition">
<mask id="mask0_0_77" style="mask-type:alpha" maskUnits="userSpaceOnUse" x="0" y="0" width="32" height="32">
<rect id="Bounding box" width="32" height="32" fill="var(--fill-0, #D9D9D9)"/>
</mask>
<g mask="url(#mask0_0_77)">
<path id="cognition_2" d="M16.028 20.5847C17.5282 20.5847 18.8006 20.1083 19.845 19.1557C20.8894 18.2032 21.4117 17.0444 21.4117 15.6793C21.4117 14.4829 21.0298 13.4642 20.266 12.6233C19.5024 11.7827 18.5714 11.3623 17.473 11.3623C16.4988 11.3623 15.669 11.6771 14.9837 12.3067C14.2986 12.9364 13.956 13.7058 13.956 14.6147C13.956 15.0073 14.0319 15.3896 14.1837 15.7613C14.3357 16.1333 14.5598 16.4744 14.856 16.7847L16.467 15.218C16.3792 15.1513 16.3091 15.0686 16.2567 14.9697C16.2044 14.8708 16.1783 14.7629 16.1783 14.646C16.1783 14.3616 16.2952 14.1191 16.529 13.9187C16.7628 13.7182 17.0754 13.618 17.467 13.618C17.9559 13.618 18.3708 13.8182 18.7117 14.2187C19.0523 14.6191 19.2227 15.1151 19.2227 15.7067C19.2227 16.4578 18.9229 17.0937 18.3233 17.6143C17.7238 18.1352 16.9717 18.3957 16.067 18.3957C14.9688 18.3957 14.035 17.9549 13.2657 17.0733C12.4963 16.192 12.1117 15.1062 12.1117 13.816C12.1117 13.1358 12.2376 12.4901 12.4893 11.879C12.7411 11.2679 13.1041 10.7253 13.5783 10.2513L11.9893 8.66233C11.3078 9.32989 10.7819 10.1052 10.4117 10.9883C10.0412 11.8712 9.856 12.7972 9.856 13.7663C9.856 15.6674 10.4561 17.2791 11.6563 18.6013C12.8563 19.9236 14.3136 20.5847 16.028 20.5847ZM7.53533 29.798V23.8073C6.27289 22.6098 5.29056 21.2179 4.58833 19.6317C3.88633 18.0454 3.53533 16.3904 3.53533 14.6667C3.53533 11.2007 4.74633 8.25467 7.16833 5.82867C9.59056 3.40244 12.5318 2.18933 15.992 2.18933C18.8756 2.18933 21.4314 3.04267 23.6597 4.74933C25.8879 6.456 27.343 8.67067 28.025 11.3933L29.8503 18.6473C29.9759 19.1169 29.8928 19.5372 29.601 19.9083C29.309 20.2792 28.9198 20.4647 28.4333 20.4647H25.8107V24.1933C25.8107 25.0142 25.525 25.7091 24.9537 26.278C24.3821 26.8469 23.6842 27.1313 22.86 27.1313H20.4773V29.798H17.5267V24.1933H22.86V17.5267H26.5303L25.19 12.1183C24.664 10.0783 23.5441 8.40533 21.8303 7.09933C20.1168 5.79311 18.1752 5.14 16.0057 5.14C13.3623 5.14 11.1128 6.05778 9.257 7.89333C7.40122 9.72889 6.47333 11.962 6.47333 14.5927C6.47333 15.9464 6.75178 17.2427 7.30867 18.4813C7.86556 19.7198 8.65622 20.8077 9.68067 21.745L10.4733 22.4917V29.798H7.53533Z" fill="var(--fill-0, #04165D)"/>
</g>
</g>
</svg>
