<svg preserveAspectRatio="none" width="100%" height="100%" overflow="visible" style="display: block;" viewBox="0 0 32 32" fill="none" xmlns="http://www.w3.org/2000/svg">
<g id="compare">
<mask id="mask0_0_95" style="mask-type:alpha" maskUnits="userSpaceOnUse" x="0" y="0" width="32" height="32">
<rect id="Bounding box" width="32" height="32" fill="var(--fill-0, #D9D9D9)"/>
</mask>
<g mask="url(#mask0_0_95)">
<path id="compare_2" d="M13.59 31.1503V28.5277H6.41067C5.60089 28.5277 4.90878 28.2403 4.33433 27.6657C3.75967 27.0912 3.47233 26.3991 3.47233 25.5893V6.41067C3.47233 5.59733 3.75967 4.90222 4.33433 4.32533C4.90878 3.74844 5.60089 3.46 6.41067 3.46H13.59V0.849666H16.0443V31.1503H13.59ZM6.39167 24.2117H13.59V15.854L6.39167 24.2117ZM18.499 28.5277V15.943L25.5893 24.1677V6.41067H18.499V3.46H25.5893C26.4027 3.46 27.0978 3.74844 27.6747 4.32533C28.2516 4.90222 28.54 5.59733 28.54 6.41067V25.5893C28.54 26.3991 28.2516 27.0912 27.6747 27.6657C27.0978 28.2403 26.4027 28.5277 25.5893 28.5277H18.499Z" fill="var(--fill-0, #04165D)"/>
</g>
</g>
</svg>
