<svg preserveAspectRatio="none" width="100%" height="100%" overflow="visible" style="display: block;" viewBox="0 0 40 40" fill="none" xmlns="http://www.w3.org/2000/svg">
<g id="explore">
<mask id="mask0_0_46" style="mask-type:alpha" maskUnits="userSpaceOnUse" x="0" y="0" width="40" height="40">
<rect id="Bounding box" width="40" height="40" fill="var(--fill-0, #D9D9D9)"/>
</mask>
<g mask="url(#mask0_0_46)">
<path id="explore_2" d="M12.7404 27.2596L24.1842 24.2121L27.2317 12.7683L15.7879 15.8158L12.7404 27.2596ZM19.9879 21.5521C19.5649 21.5521 19.2025 21.3971 18.9008 21.0871C18.5989 20.7774 18.4479 20.411 18.4479 19.9879C18.4479 19.5649 18.6029 19.2025 18.9129 18.9008C19.2226 18.5989 19.589 18.4479 20.0121 18.4479C20.4351 18.4479 20.7975 18.6029 21.0992 18.9129C21.4011 19.2226 21.5521 19.589 21.5521 20.0121C21.5521 20.4351 21.3971 20.7975 21.0871 21.0992C20.7774 21.4011 20.411 21.5521 19.9879 21.5521ZM20.0096 37.3263C17.6029 37.3263 15.3486 36.8736 13.2467 35.9683C11.145 35.0633 9.31 33.8267 7.74167 32.2583C6.17333 30.69 4.93667 28.855 4.03167 26.7533C3.12639 24.6517 2.67375 22.3967 2.67375 19.9883C2.67375 17.58 3.12639 15.3243 4.03167 13.2213C4.93667 11.1179 6.1725 9.28653 7.73917 7.72708C9.30583 6.16736 11.1404 4.93264 13.2429 4.02292C15.3454 3.11319 17.6013 2.65833 20.0104 2.65833C22.4196 2.65833 24.6764 3.11278 26.7808 4.02167C28.8853 4.93056 30.7168 6.16417 32.2754 7.7225C33.8343 9.28083 35.0685 11.1132 35.9779 13.2196C36.8871 15.326 37.3417 17.5836 37.3417 19.9925C37.3417 22.4008 36.8868 24.6557 35.9771 26.7571C35.0674 28.8588 33.8326 30.6914 32.2729 32.255C30.7135 33.8186 28.8814 35.0547 26.7767 35.9633C24.6719 36.8719 22.4163 37.3263 20.0096 37.3263ZM20.0108 33.6533C23.8281 33.6533 27.0561 32.3303 29.695 29.6842C32.3339 27.0383 33.6533 23.8067 33.6533 19.9892C33.6533 16.1719 32.3349 12.9439 29.6979 10.305C27.0607 7.66611 23.8335 6.34667 20.0163 6.34667C16.199 6.34667 12.9664 7.66514 10.3183 10.3021C7.67056 12.9393 6.34667 16.1665 6.34667 19.9837C6.34667 23.801 7.66972 27.0336 10.3158 29.6817C12.9617 32.3294 16.1933 33.6533 20.0108 33.6533Z" fill="var(--fill-0, white)"/>
</g>
</g>
</svg>
