<svg preserveAspectRatio="none" width="100%" height="100%" overflow="visible" style="display: block;" viewBox="0 0 32 32" fill="none" xmlns="http://www.w3.org/2000/svg">
<g id="feedback">
<mask id="mask0_0_22" style="mask-type:alpha" maskUnits="userSpaceOnUse" x="0" y="0" width="32" height="32">
<rect id="Bounding box" width="32" height="32" fill="var(--fill-0, #D9D9D9)"/>
</mask>
<g mask="url(#mask0_0_22)">
<path id="feedback_2" d="M16.0057 19.8697C16.407 19.8697 16.7414 19.7317 17.009 19.4557C17.2763 19.1799 17.41 18.8437 17.41 18.447C17.41 18.0506 17.2764 17.7153 17.0093 17.4413C16.742 17.1673 16.4078 17.0303 16.0067 17.0303C15.6053 17.0303 15.2689 17.166 14.9973 17.4373C14.7258 17.7089 14.59 18.0452 14.59 18.4463C14.59 18.8428 14.7257 19.1791 14.997 19.4553C15.2683 19.7316 15.6046 19.8697 16.0057 19.8697ZM14.7633 15.0367H17.2367V6.66667H14.7633V15.0367ZM2.139 29.861V5.07733C2.139 4.264 2.42633 3.56889 3.001 2.992C3.57544 2.41511 4.26756 2.12667 5.07733 2.12667H26.9227C27.736 2.12667 28.4311 2.41511 29.008 2.992C29.5849 3.56889 29.8733 4.264 29.8733 5.07733V21.5893C29.8733 22.3991 29.5849 23.0912 29.008 23.6657C28.4311 24.2403 27.736 24.5277 26.9227 24.5277H7.47233L2.139 29.861ZM6.517 21.5893H26.9227V5.07733H5.07733V23.1573L6.517 21.5893Z" fill="var(--fill-0, #04165D)"/>
</g>
</g>
</svg>
