<svg preserveAspectRatio="none" width="100%" height="100%" overflow="visible" style="display: block;" viewBox="0 0 32 32" fill="none" xmlns="http://www.w3.org/2000/svg">
<g id="gesture_select">
<mask id="mask0_0_34" style="mask-type:alpha" maskUnits="userSpaceOnUse" x="0" y="0" width="32" height="32">
<rect id="Bounding box" width="32" height="32" fill="var(--fill-0, #D9D9D9)"/>
</mask>
<g mask="url(#mask0_0_34)">
<path id="gesture_select_2" d="M0.686333 16.2513V13.5517H3.386V16.2513H0.686333ZM28.6077 16.2513V13.5517H31.2947V16.2513H28.6077ZM0.686333 10.5323V7.84533H3.386V10.5323H0.686333ZM28.6077 10.5323V7.84533H31.2947V10.5323H28.6077ZM0.686333 4.826V2.12667H3.386V4.826H0.686333ZM6.40533 16.2513V13.5517H9.09233V16.2513H6.40533ZM22.889 16.2513V13.5517H25.5883V16.2513H22.889ZM28.6077 4.826V2.12667H31.2947V4.826H28.6077ZM6.40533 4.826V2.12667H9.09233V4.826H6.40533ZM11.8893 4.826V2.12667H14.589V4.826H11.8893ZM17.4047 4.826V2.12667H20.0917V4.826H17.4047ZM22.889 4.826V2.12667H25.5883V4.826H22.889ZM14.4757 31.32C13.9412 31.32 13.4291 31.2213 12.9393 31.024C12.4493 30.8269 12.0144 30.5358 11.6347 30.1507L4.802 23.3097L5.939 22.1803C6.26367 21.8566 6.64433 21.6389 7.081 21.5273C7.51789 21.4158 7.95933 21.4239 8.40533 21.5517L10.6863 22.1847V10.8653C10.6863 10.4847 10.8191 10.1656 11.0847 9.908C11.35 9.65044 11.673 9.52167 12.0537 9.52167C12.4306 9.52167 12.7468 9.65044 13.0023 9.908C13.2581 10.1656 13.386 10.4847 13.386 10.8653V25.768L10.129 24.8427L13.5447 28.2537C13.6631 28.3877 13.7992 28.4843 13.953 28.5437C14.1068 28.6032 14.281 28.633 14.4757 28.633H21.8937C22.6319 28.633 23.2592 28.3729 23.7757 27.8527C24.2921 27.3324 24.5503 26.707 24.5503 25.9763V20.7347C24.5503 20.3542 24.6811 20.0352 24.9427 19.7777C25.2044 19.5201 25.5259 19.3913 25.907 19.3913C26.2881 19.3913 26.6051 19.5201 26.858 19.7777C27.1109 20.0352 27.2373 20.3542 27.2373 20.7347V25.9763C27.2373 27.4728 26.7208 28.7374 25.6877 29.7703C24.6548 30.8034 23.3901 31.32 21.8937 31.32H14.4757ZM15.3193 21.827V16.2613C15.3193 15.8769 15.4493 15.5569 15.7093 15.3013C15.9696 15.0458 16.289 14.918 16.6677 14.918C17.0463 14.918 17.3641 15.0467 17.621 15.304C17.8779 15.5616 18.0063 15.8807 18.0063 16.2613V21.827H15.3193ZM19.9173 21.827V18.445C19.9173 18.0643 20.0501 17.7452 20.3157 17.4877C20.581 17.2301 20.904 17.1013 21.2847 17.1013C21.6616 17.1013 21.9778 17.2301 22.2333 17.4877C22.4891 17.7452 22.617 18.0643 22.617 18.445V21.827H19.9173Z" fill="var(--fill-0, #04165D)"/>
</g>
</g>
</svg>
