<svg preserveAspectRatio="none" width="100%" height="100%" overflow="visible" style="display: block;" viewBox="0 0 32 32" fill="none" xmlns="http://www.w3.org/2000/svg">
<g id="handshake">
<mask id="mask0_0_119" style="mask-type:alpha" maskUnits="userSpaceOnUse" x="0" y="0" width="32" height="32">
<rect id="Bounding box" width="32" height="32" fill="var(--fill-0, #D9D9D9)"/>
</mask>
<g mask="url(#mask0_0_119)">
<path id="handshake_2" d="M15.7937 27.111C15.8946 27.111 16.0069 27.0893 16.1307 27.046C16.2544 27.0024 16.3618 26.9352 16.4527 26.8443L27.5043 15.7707C27.8148 15.4598 28.0522 15.099 28.2167 14.6883C28.3811 14.2779 28.4633 13.8549 28.4633 13.4193C28.4633 12.9844 28.3811 12.5558 28.2167 12.1333C28.0522 11.7109 27.8148 11.3421 27.5043 11.027L22.1997 5.72233C21.9088 5.43655 21.575 5.22622 21.1983 5.09133C20.8214 4.95644 20.436 4.889 20.042 4.889C19.6602 4.889 19.2817 4.95433 18.9063 5.085C18.5308 5.21567 18.2086 5.40711 17.9397 5.65933L17.562 6.056L20.0583 8.567C20.4081 8.93678 20.6988 9.35578 20.9303 9.824C21.1617 10.292 21.2773 10.8052 21.2773 11.3637C21.2773 12.3543 20.9048 13.2182 20.1597 13.9553C19.4146 14.6924 18.5413 15.061 17.54 15.061C16.9449 15.061 16.4283 14.9659 15.9903 14.7757C15.5523 14.5854 15.1508 14.3067 14.7857 13.9393L12.367 11.529L6.771 17.119C6.67478 17.2068 6.60622 17.3078 6.56533 17.422C6.52467 17.536 6.50433 17.6546 6.50433 17.7777C6.50433 18.0241 6.58633 18.2302 6.75033 18.396C6.91455 18.5616 7.12011 18.6443 7.367 18.6443C7.49056 18.6443 7.611 18.6148 7.72833 18.5557C7.84567 18.4963 7.94133 18.4297 8.01533 18.3557L12.386 13.9913L13.9417 15.547L9.605 19.8877C9.50833 19.9848 9.43956 20.0957 9.39867 20.2203C9.358 20.345 9.33767 20.4651 9.33767 20.5807C9.33767 20.822 9.42033 21.0262 9.58567 21.1933C9.75078 21.3607 9.95189 21.4443 10.189 21.4443C10.3074 21.4443 10.4253 21.4184 10.5427 21.3667C10.6602 21.3149 10.7626 21.2517 10.8497 21.177L15.1753 16.8433L16.731 18.399L12.3823 22.7403C12.3126 22.815 12.2504 22.9158 12.196 23.0427C12.1416 23.1696 12.1143 23.2933 12.1143 23.414C12.1143 23.6544 12.2012 23.8617 12.375 24.0357C12.5486 24.2097 12.7552 24.2967 12.995 24.2967C13.115 24.2967 13.2281 24.2742 13.3343 24.2293C13.4406 24.1844 13.5377 24.118 13.6257 24.03L17.99 19.658L19.5453 21.2137L15.181 25.5777C15.0932 25.6741 15.0269 25.7847 14.982 25.9093C14.9369 26.034 14.9143 26.1467 14.9143 26.2473C14.9143 26.5173 14.9957 26.7288 15.1583 26.8817C15.3208 27.0346 15.5326 27.111 15.7937 27.111ZM15.7987 29.817C14.9678 29.817 14.2228 29.5406 13.5637 28.9877C12.9046 28.4348 12.4901 27.7329 12.3203 26.882C11.5983 26.7558 10.9786 26.4309 10.461 25.9073C9.94367 25.3836 9.62111 24.7649 9.49333 24.0513C8.79222 23.9109 8.18844 23.5837 7.682 23.0697C7.17578 22.5559 6.85244 21.9533 6.712 21.262C5.86978 21.0964 5.17056 20.6869 4.61433 20.0333C4.05789 19.38 3.77967 18.6178 3.77967 17.7467C3.77967 17.2927 3.87089 16.8426 4.05333 16.3963C4.23578 15.9503 4.48856 15.559 4.81167 15.2223L12.367 7.67167L16.575 11.8667C16.7166 12.0116 16.8727 12.126 17.0433 12.21C17.2142 12.2942 17.3912 12.3363 17.5743 12.3363C17.8246 12.3363 18.052 12.2308 18.2567 12.0197C18.4613 11.8086 18.5637 11.5784 18.5637 11.3293C18.5637 11.2131 18.527 11.0773 18.4537 10.922C18.3801 10.7667 18.2772 10.6223 18.145 10.489L13.3333 5.67733C13.0724 5.40911 12.7446 5.21067 12.3497 5.082C11.9548 4.95333 11.5482 4.889 11.13 4.889C10.7111 4.889 10.3174 4.95333 9.949 5.082C9.58033 5.21067 9.26622 5.40833 9.00667 5.675L4.27433 10.389C4.03789 10.6337 3.862 10.9216 3.74667 11.2527C3.63111 11.5838 3.56478 11.9612 3.54767 12.385C3.539 12.7041 3.603 13.0157 3.73967 13.3197C3.87611 13.6234 4.03456 13.9062 4.215 14.168L2.276 16.1073C1.85778 15.678 1.515 15.1172 1.24767 14.425C0.980111 13.7326 0.847444 13.0414 0.849666 12.3517C0.851888 11.5868 0.979555 10.8773 1.23267 10.2233C1.48556 9.56933 1.86633 8.98811 2.375 8.47967L7.06467 3.771C7.59778 3.24122 8.228 2.84778 8.95533 2.59067C9.68289 2.33378 10.4134 2.20533 11.147 2.20533C11.9183 2.20533 12.6562 2.33378 13.3607 2.59067C14.0649 2.84778 14.6779 3.22656 15.1997 3.727L15.596 4.10467L15.974 3.727C16.4902 3.24322 17.1117 2.86867 17.8383 2.60333C18.5648 2.338 19.3031 2.20533 20.0533 2.20533C20.7953 2.20533 21.5242 2.34433 22.24 2.62233C22.956 2.90011 23.5789 3.30389 24.1087 3.83367L29.5247 9.231C30.0631 9.76589 30.4687 10.4104 30.7413 11.1647C31.014 11.9189 31.1503 12.6701 31.1503 13.4183C31.1503 14.1792 31.0044 14.9399 30.7127 15.7003C30.4211 16.4608 30.0021 17.1184 29.4557 17.6733L18.3473 28.758C18.0049 29.1004 17.6156 29.3626 17.1793 29.5443C16.7429 29.7261 16.2827 29.817 15.7987 29.817Z" fill="var(--fill-0, #04165D)"/>
</g>
</g>
</svg>
