<svg preserveAspectRatio="none" width="100%" height="100%" overflow="visible" style="display: block;" viewBox="0 0 32 32" fill="none" xmlns="http://www.w3.org/2000/svg">
<g id="help">
<mask id="mask0_0_28" style="mask-type:alpha" maskUnits="userSpaceOnUse" x="0" y="0" width="32" height="32">
<rect id="Bounding box" width="32" height="32" fill="var(--fill-0, #D9D9D9)"/>
</mask>
<g mask="url(#mask0_0_28)">
<path id="help_2" d="M17.127 23.3793C17.4372 23.0691 17.5923 22.698 17.5923 22.266C17.5923 21.834 17.4372 21.4669 17.127 21.1647C16.817 20.8627 16.4467 20.7117 16.016 20.7117C15.5856 20.7117 15.2174 20.8627 14.9117 21.1647C14.6059 21.4669 14.453 21.834 14.453 22.266C14.453 22.698 14.6059 23.0691 14.9117 23.3793C15.2174 23.6893 15.5856 23.8443 16.016 23.8443C16.4467 23.8443 16.817 23.6893 17.127 23.3793ZM14.6753 18.889H17.1227C17.1227 18.2928 17.1997 17.763 17.3537 17.2997C17.5077 16.8361 17.9431 16.2914 18.66 15.6657C19.2824 15.1381 19.7424 14.5938 20.04 14.0327C20.3373 13.4716 20.486 12.8349 20.486 12.1227C20.486 10.8831 20.0899 9.90578 19.2977 9.19067C18.5054 8.47555 17.478 8.118 16.2153 8.118C15.0253 8.118 13.996 8.43778 13.1273 9.07733C12.2584 9.71689 11.6337 10.5407 11.253 11.5487L13.5033 12.3997C13.7202 11.8348 14.0448 11.3639 14.477 10.987C14.9094 10.6101 15.4394 10.4217 16.067 10.4217C16.6781 10.4217 17.1723 10.597 17.5497 10.9477C17.9268 11.2981 18.1153 11.734 18.1153 12.2553C18.1153 12.6778 17.984 13.0909 17.7213 13.4947C17.4589 13.8984 17.1113 14.278 16.6787 14.6333C15.9418 15.2822 15.4237 15.8899 15.1243 16.4563C14.825 17.0226 14.6753 17.8334 14.6753 18.889ZM16.0017 29.861C14.0872 29.861 12.2876 29.4989 10.6027 28.7747C8.91778 28.0507 7.448 27.0613 6.19333 25.8067C4.93867 24.552 3.94933 23.0828 3.22533 21.399C2.50111 19.7154 2.139 17.9163 2.139 16.0017C2.139 14.0723 2.50111 12.2652 3.22533 10.5803C3.94933 8.89544 4.938 7.42922 6.19133 6.18167C7.44467 4.93389 8.91356 3.94611 10.598 3.21833C12.2822 2.49055 14.082 2.12667 15.9973 2.12667C17.9273 2.12667 19.7352 2.49022 21.421 3.21733C23.107 3.94444 24.5734 4.93133 25.8203 6.178C27.0674 7.42467 28.0548 8.89056 28.7823 10.5757C29.5097 12.2608 29.8733 14.0689 29.8733 16C29.8733 17.9158 29.5094 19.716 28.7817 21.4007C28.0539 23.0853 27.0661 24.5546 25.8183 25.8083C24.5708 27.0619 23.1051 28.0507 21.4213 28.7747C19.7376 29.4989 17.931 29.861 16.0017 29.861ZM16 26.9227C19.046 26.9227 21.628 25.8627 23.746 23.7427C25.8638 21.6227 26.9227 19.0418 26.9227 16C26.9227 12.954 25.8638 10.372 23.746 8.254C21.628 6.13622 19.0439 5.07733 15.9937 5.07733C12.9583 5.07733 10.3801 6.13622 8.259 8.254C6.13789 10.372 5.07733 12.9561 5.07733 16.0063C5.07733 19.0417 6.13733 21.6199 8.25733 23.741C10.3773 25.8621 12.9582 26.9227 16 26.9227Z" fill="var(--fill-0, #04165D)"/>
</g>
</g>
</svg>
