<svg preserveAspectRatio="none" width="100%" height="100%" overflow="visible" style="display: block;" viewBox="0 0 32 32" fill="none" xmlns="http://www.w3.org/2000/svg">
<g id="list_alt_check">
<mask id="mask0_0_68" style="mask-type:alpha" maskUnits="userSpaceOnUse" x="0" y="0" width="32" height="32">
<rect id="Bounding box" width="32" height="32" fill="var(--fill-0, #D9D9D9)"/>
</mask>
<g mask="url(#mask0_0_68)">
<path id="list_alt_check_2" d="M6.41067 25.5893V6.41067V22.5673V19.642V25.5893ZM6.41067 28.5277C5.60089 28.5277 4.90878 28.2403 4.33433 27.6657C3.75967 27.0912 3.47233 26.3991 3.47233 25.5893V6.41067C3.47233 5.59733 3.75967 4.90222 4.33433 4.32533C4.90878 3.74844 5.60089 3.46 6.41067 3.46H25.5893C26.4027 3.46 27.0978 3.74844 27.6747 4.32533C28.2516 4.90222 28.54 5.59733 28.54 6.41067V17.5023H25.5893V6.41067H6.41067V25.5893H16.198V28.5277H6.41067ZM23.2923 29.861L18.317 24.8667L20.367 22.7863L23.2923 25.7117L29.1267 19.89L31.213 21.94L23.2923 29.861ZM11.0057 16.7833C11.2241 16.5649 11.3333 16.3038 11.3333 16C11.3333 15.6962 11.2241 15.4351 11.0057 15.2167C10.787 14.9982 10.5259 14.889 10.2223 14.889C9.91856 14.889 9.65744 14.9982 9.439 15.2167C9.22033 15.4351 9.111 15.6962 9.111 16C9.111 16.3038 9.22033 16.5649 9.439 16.7833C9.65744 17.0018 9.91856 17.111 10.2223 17.111C10.5259 17.111 10.787 17.0018 11.0057 16.7833ZM11.0057 11.4553C11.2241 11.2409 11.3333 10.9798 11.3333 10.672C11.3333 10.364 11.2241 10.1008 11.0057 9.88233C10.787 9.66389 10.5259 9.55467 10.2223 9.55467C9.91856 9.55467 9.65744 9.66389 9.439 9.88233C9.22033 10.1008 9.111 10.364 9.111 10.672C9.111 10.9798 9.22033 11.2409 9.439 11.4553C9.65744 11.6696 9.91856 11.7767 10.2223 11.7767C10.5259 11.7767 10.787 11.6696 11.0057 11.4553ZM14.489 17.111H22.5777V14.889H14.489V17.111ZM14.489 11.7767H22.5777V9.55467H14.489V11.7767Z" fill="var(--fill-0, #04165D)"/>
</g>
</g>
</svg>
