<svg preserveAspectRatio="none" width="100%" height="100%" overflow="visible" style="display: block;" viewBox="0 0 32 32" fill="none" xmlns="http://www.w3.org/2000/svg">
<g id="map">
<mask id="mask0_0_110" style="mask-type:alpha" maskUnits="userSpaceOnUse" x="0" y="0" width="32" height="32">
<rect id="Bounding box" width="32" height="32" fill="var(--fill-0, #D9D9D9)"/>
</mask>
<g mask="url(#mask0_0_110)">
<path id="map_2" d="M20.2667 28.5463L11.7557 25.5463L5.89967 27.8803C5.32367 28.1399 4.77511 28.098 4.254 27.7547C3.73289 27.4113 3.47233 26.9153 3.47233 26.2667V7.64433C3.47233 7.24256 3.58811 6.88233 3.81967 6.56367C4.05122 6.24522 4.35856 6.01578 4.74167 5.87533L11.7557 3.45367L20.2667 6.43133L26.1003 4.09767C26.6763 3.85278 27.227 3.89833 27.7523 4.23433C28.2774 4.57011 28.54 5.06233 28.54 5.711V24.489C28.54 24.8697 28.4221 25.2023 28.1863 25.487C27.9508 25.7717 27.6489 25.9768 27.2807 26.1023L20.2667 28.5463ZM19.0667 25.0183V9.03567L12.9333 6.947V22.9293L19.0667 25.0183ZM21.289 25.0183L25.5893 23.611V7.38733L21.289 9.03567V25.0183ZM6.41067 24.5777L10.711 22.9293V6.947L6.41067 8.36667V24.5777Z" fill="var(--fill-0, #04165D)"/>
</g>
</g>
</svg>
