<svg preserveAspectRatio="none" width="100%" height="100%" overflow="visible" style="display: block;" viewBox="0 0 32 32" fill="none" xmlns="http://www.w3.org/2000/svg">
<g id="mobile_hand">
<mask id="mask0_0_43" style="mask-type:alpha" maskUnits="userSpaceOnUse" x="0" y="0" width="32" height="32">
<rect id="Bounding box" width="32" height="32" fill="var(--fill-0, #D9D9D9)"/>
</mask>
<g mask="url(#mask0_0_43)">
<path id="mobile_hand_2" d="M22.2093 31.1943C21.6382 31.1943 21.0926 31.0867 20.5723 30.8713C20.0519 30.656 19.6177 30.3196 19.2697 29.862L12.5217 21.3477L13.814 20.026C14.218 19.6238 14.696 19.4011 15.248 19.358C15.8 19.3149 16.3502 19.3761 16.8987 19.5417L20.9463 20.953V9.68133H24.1007C25.4891 9.68133 26.7404 10.2121 27.8547 11.2737C28.9689 12.3354 29.526 13.6486 29.526 15.213V25.8883C29.526 27.3721 29.0099 28.6273 27.9777 29.654C26.9452 30.6809 25.6886 31.1943 24.2077 31.1943H22.2093ZM8.49767 29.861C7.67678 29.861 6.98189 29.5764 6.413 29.0073C5.84389 28.4384 5.55933 27.7436 5.55933 26.9227V5.07733C5.55933 4.25289 5.84389 3.555 6.413 2.98367C6.98189 2.41233 7.67678 2.12667 8.49767 2.12667H20.94C21.7522 2.12667 22.445 2.41233 23.0183 2.98367C23.5917 3.555 23.8783 4.25289 23.8783 5.07733V9.68133H20.9463V5.05833H8.47867V26.9417H16.9733L19.2497 29.861H8.49767ZM15.598 9.30367C15.8322 9.06189 15.9493 8.76667 15.9493 8.418C15.9493 8.06955 15.831 7.77822 15.5943 7.544C15.3574 7.30978 15.0648 7.19267 14.7163 7.19267C14.3677 7.19267 14.0738 7.31111 13.8347 7.548C13.5956 7.78467 13.476 8.07733 13.476 8.426C13.476 8.77444 13.5968 9.06822 13.8383 9.30733C14.0801 9.54667 14.3753 9.66633 14.724 9.66633C15.0727 9.66633 15.364 9.54544 15.598 9.30367ZM22.2503 28.57H24.2077C24.9581 28.57 25.5927 28.3084 26.1113 27.7853C26.63 27.262 26.8893 26.6297 26.8893 25.8883V15.213C26.8893 14.4141 26.6134 13.7329 26.0617 13.1693C25.5097 12.606 24.8352 12.3243 24.0383 12.3243H23.7527V25.0087L16.9007 22.439L21.1853 28.0937C21.3113 28.2554 21.4697 28.3752 21.6603 28.453C21.8512 28.531 22.0479 28.57 22.2503 28.57Z" fill="var(--fill-0, #04165D)"/>
</g>
</g>
</svg>
