<svg preserveAspectRatio="none" width="100%" height="100%" overflow="visible" style="display: block;" viewBox="0 0 32 32" fill="none" xmlns="http://www.w3.org/2000/svg">
<g id="multimodal_hand_eye">
<mask id="mask0_0_135" style="mask-type:alpha" maskUnits="userSpaceOnUse" x="0" y="0" width="32" height="32">
<rect id="Bounding box" width="32" height="32" fill="var(--fill-0, #D9D9D9)"/>
</mask>
<g mask="url(#mask0_0_135)">
<path id="multimodal_hand_eye_2" d="M9.14233 31.3137C8.60789 31.3137 8.09578 31.213 7.606 31.0117C7.116 30.8103 6.68111 30.5171 6.30133 30.132L-0.531334 23.291L0.605666 22.1613C0.930333 21.8376 1.311 21.6199 1.74767 21.5083C2.18456 21.3968 2.626 21.405 3.072 21.533L5.353 22.1657V10.8463C5.353 10.4657 5.48578 10.1466 5.75133 9.889C6.01667 9.63167 6.33967 9.503 6.72033 9.503C7.09722 9.503 7.41344 9.63167 7.669 9.889C7.92478 10.1466 8.05267 10.4657 8.05267 10.8463V25.7493L4.79567 24.8237L8.21133 28.235C8.32978 28.3688 8.46589 28.4654 8.61967 28.525C8.77344 28.5843 8.94767 28.614 9.14233 28.614H16.5603C17.2986 28.614 17.9259 28.3539 18.4423 27.8337C18.9588 27.3134 19.217 26.6881 19.217 25.9577V20.716C19.217 20.3353 19.3478 20.0162 19.6093 19.7587C19.8711 19.5011 20.1926 19.3723 20.5737 19.3723C20.9548 19.3723 21.2718 19.5011 21.5247 19.7587C21.7776 20.0162 21.904 20.3353 21.904 20.716V25.9577C21.904 27.451 21.3874 28.717 20.3543 29.7557C19.3214 30.7943 18.0568 31.3137 16.5603 31.3137H9.14233ZM9.986 21.8207V16.2427C9.986 15.8582 10.116 15.5382 10.376 15.2827C10.6362 15.0269 10.9557 14.899 11.3343 14.899C11.713 14.899 12.0308 15.0278 12.2877 15.2853C12.5446 15.5429 12.673 15.862 12.673 16.2427V21.8207H9.986ZM14.584 21.8207V18.426C14.584 18.0453 14.7168 17.7263 14.9823 17.469C15.2477 17.2114 15.5707 17.0827 15.9513 17.0827C16.3282 17.0827 16.6444 17.2114 16.9 17.469C17.1558 17.7263 17.2837 18.0453 17.2837 18.426V21.8207H14.584ZM21.7953 14.4923C19.7269 14.4923 17.8333 13.9362 16.1147 12.824C14.3958 11.7118 13.137 10.2038 12.3383 8.3C13.137 6.39622 14.3958 4.89033 16.1147 3.78233C17.8333 2.67433 19.7308 2.12033 21.807 2.12033C23.8832 2.12033 25.7818 2.67433 27.5027 3.78233C29.2236 4.89033 30.4876 6.39989 31.2947 8.311C30.5173 10.2221 29.2592 11.7301 27.5203 12.835C25.7814 13.9399 23.8731 14.4923 21.7953 14.4923ZM25.4643 10.911C26.6163 10.2814 27.5899 9.41111 28.385 8.3C27.5899 7.19733 26.616 6.329 25.4633 5.695C24.3107 5.06122 23.0921 4.74433 21.8077 4.74433C20.523 4.74433 19.3083 5.06233 18.1637 5.69833C17.0192 6.33411 16.0536 7.20133 15.2667 8.3C16.0536 9.39844 17.0199 10.2657 18.1657 10.9017C19.3114 11.5377 20.5262 11.8557 21.81 11.8557C23.094 11.8557 24.3121 11.5408 25.4643 10.911ZM20.4423 9.68C20.0686 9.306 19.8817 8.848 19.8817 8.306C19.8817 7.76378 20.0687 7.30578 20.4427 6.932C20.8167 6.55822 21.2748 6.37133 21.817 6.37133C22.359 6.37133 22.8169 6.55844 23.1907 6.93267C23.5644 7.30667 23.7513 7.76467 23.7513 8.30667C23.7513 8.84867 23.5643 9.30655 23.1903 9.68033C22.8163 10.0541 22.3582 10.241 21.816 10.241C21.274 10.241 20.8161 10.054 20.4423 9.68Z" fill="var(--fill-0, #04165D)"/>
</g>
</g>
</svg>
