<svg preserveAspectRatio="none" width="100%" height="100%" overflow="visible" style="display: block;" viewBox="0 0 40 40" fill="none" xmlns="http://www.w3.org/2000/svg">
<g id="package_2">
<mask id="mask0_0_71" style="mask-type:alpha" maskUnits="userSpaceOnUse" x="0" y="0" width="40" height="40">
<rect id="Bounding box" width="40" height="40" fill="var(--fill-0, #D9D9D9)"/>
</mask>
<g mask="url(#mask0_0_71)">
<path id="package_2_2" d="M18.2659 32.7096V20.9858L8.01343 15.0537V26.7775L18.2659 32.7096ZM21.7501 32.7096L31.9868 26.7775V15.0258L21.7501 20.9858V32.7096ZM18.1639 36.8775L6.17718 29.985C5.59524 29.6511 5.14371 29.1996 4.8226 28.6304C4.50121 28.061 4.34052 27.4498 4.34052 26.7971V13.2029C4.34052 12.5501 4.50121 11.939 4.8226 11.3696C5.14371 10.8004 5.59524 10.3489 6.17718 10.015L18.1639 3.10665C18.735 2.7836 19.347 2.62207 20.0001 2.62207C20.6532 2.62207 21.2652 2.7836 21.8364 3.10665L33.823 10.015C34.405 10.3489 34.8591 10.8004 35.1855 11.3696C35.5119 11.939 35.6751 12.5501 35.6751 13.2029V26.7971C35.6751 27.4498 35.5119 28.061 35.1855 28.6304C34.8591 29.1996 34.405 29.6511 33.823 29.985L21.8364 36.8775C21.2652 37.2111 20.6532 37.3779 20.0001 37.3779C19.347 37.3779 18.735 37.2111 18.1639 36.8775ZM26.723 14.0892L30.0997 12.13L20.0001 6.29457L16.633 8.24457L26.723 14.0892ZM20.0001 18.0004L23.4464 15.995L13.3109 10.1758L9.88843 12.13L20.0001 18.0004Z" fill="var(--fill-0, white)"/>
</g>
</g>
</svg>
