<svg preserveAspectRatio="none" width="100%" height="100%" overflow="visible" style="display: block;" viewBox="0 0 32 32" fill="none" xmlns="http://www.w3.org/2000/svg">
<g id="record_voice_over">
<mask id="mask0_0_138" style="mask-type:alpha" maskUnits="userSpaceOnUse" x="0" y="0" width="32" height="32">
<rect id="Bounding box" width="32" height="32" fill="var(--fill-0, #D9D9D9)"/>
</mask>
<g mask="url(#mask0_0_138)">
<path id="record_voice_over_2" d="M27.0813 20.7023L25.1997 18.7957C26.2283 17.7363 27.0303 16.5978 27.6057 15.38C28.1812 14.162 28.469 12.7314 28.469 11.0883C28.469 9.463 28.1907 8.049 27.634 6.84633C27.0773 5.64367 26.2931 4.516 25.2813 3.46333L27.1503 1.581C28.3948 2.83967 29.3726 4.24767 30.0837 5.805C30.7948 7.36233 31.1503 9.12133 31.1503 11.082C31.1503 13.0804 30.7876 14.8679 30.062 16.4443C29.3367 18.0208 28.3431 19.4401 27.0813 20.7023ZM22.4697 15.9363L20.6033 14.011C20.9782 13.6281 21.27 13.197 21.4787 12.7177C21.6873 12.2381 21.7917 11.7058 21.7917 11.1207C21.7917 10.5356 21.6863 10.0071 21.4757 9.53533C21.2648 9.06378 20.9803 8.63155 20.6223 8.23867L22.5137 6.32833C23.1148 6.94122 23.5911 7.66489 23.9427 8.49933C24.2942 9.334 24.47 10.2053 24.47 11.1133C24.47 12.0422 24.2869 12.925 23.9207 13.7617C23.5547 14.5986 23.071 15.3234 22.4697 15.9363ZM12.0597 16.7647C10.4277 16.7647 9.07722 16.2282 8.00833 15.1553C6.93967 14.0824 6.40533 12.7343 6.40533 11.111C6.40533 9.48767 6.93889 8.14244 8.006 7.07533C9.07289 6.00822 10.418 5.47467 12.0413 5.47467C13.6647 5.47467 15.0128 6.00822 16.0857 7.07533C17.1588 8.14244 17.6953 9.48767 17.6953 11.111C17.6953 12.7343 17.164 14.0824 16.1013 15.1553C15.0389 16.2282 13.6917 16.7647 12.0597 16.7647ZM0.849666 28.5023V24.6227C0.849666 23.6604 1.10256 22.8379 1.60833 22.155C2.11411 21.4723 2.70033 20.9643 3.367 20.631C4.50033 20.0532 5.85767 19.5643 7.439 19.1643C9.02011 18.7646 10.5551 18.5647 12.044 18.5647C13.5329 18.5647 15.0642 18.7604 16.638 19.152C18.2118 19.5433 19.5694 20.0238 20.711 20.5933C21.3777 20.9349 21.9677 21.4513 22.481 22.1427C22.9941 22.8338 23.2507 23.6604 23.2507 24.6227V28.5023H0.849666ZM3.788 25.5517H20.3V24.6917C20.3 24.3817 20.2167 24.1011 20.05 23.85C19.8833 23.5989 19.6481 23.3872 19.3443 23.215C18.3666 22.6817 17.227 22.263 15.9257 21.959C14.6246 21.655 13.3307 21.503 12.044 21.503C10.7573 21.503 9.46178 21.6656 8.15733 21.9907C6.85267 22.3158 5.70733 22.7252 4.72133 23.219C4.45556 23.357 4.23356 23.5594 4.05533 23.8263C3.87711 24.0932 3.788 24.3817 3.788 24.6917V25.5517ZM13.9763 13.0467C14.4883 12.5349 14.7443 11.893 14.7443 11.121C14.7443 10.3488 14.4886 9.70444 13.977 9.188C13.4654 8.67133 12.8236 8.413 12.0513 8.413C11.2793 8.413 10.635 8.67111 10.1183 9.18733C9.60167 9.70333 9.34333 10.3474 9.34333 11.1197C9.34333 11.8917 9.60144 12.5338 10.1177 13.046C10.6339 13.558 11.278 13.814 12.05 13.814C12.8222 13.814 13.4643 13.5582 13.9763 13.0467Z" fill="var(--fill-0, #04165D)"/>
</g>
</g>
</svg>
