<svg preserveAspectRatio="none" width="100%" height="100%" overflow="visible" style="display: block;" viewBox="0 0 40 40" fill="none" xmlns="http://www.w3.org/2000/svg">
<g id="search_insights">
<mask id="mask0_0_16" style="mask-type:alpha" maskUnits="userSpaceOnUse" x="0" y="0" width="40" height="40">
<rect id="Bounding box" width="40" height="40" fill="var(--fill-0, #D9D9D9)"/>
</mask>
<g mask="url(#mask0_0_16)">
<path id="search_insights_2" d="M16.8412 27.5912C19.8265 27.5912 22.3691 26.5439 24.4691 24.4495C26.5694 22.3548 27.6195 19.8166 27.6195 16.8349C27.6195 13.8688 26.5687 11.3438 24.467 9.25992C22.3656 7.17631 19.8263 6.1345 16.8491 6.1345C13.8786 6.1345 11.3588 7.177 9.28994 9.262C7.22078 11.347 6.18619 13.8688 6.18619 16.8274C6.18619 19.8141 7.22078 22.3548 9.28994 24.4495C11.3588 26.5439 13.8759 27.5912 16.8412 27.5912ZM15.2745 21.1853V10.0916H18.5545V21.1853H15.2745ZM9.17661 21.1853V13.5553H12.4724V21.1853H9.17661ZM21.3566 21.1853V15.2737H24.6524V21.1853H21.3566ZM34.7774 37.3262L25.5687 28.0895C24.3484 29.0339 23.0006 29.7677 21.5254 30.2908C20.0501 30.8138 18.4897 31.0753 16.8441 31.0753C12.9019 31.0753 9.55925 29.6902 6.81619 26.9199C4.07342 24.1496 2.70203 20.7896 2.70203 16.8399C2.70203 12.8899 4.07272 9.53742 6.81411 6.78242C9.5555 4.0277 12.9012 2.65034 16.8512 2.65034C20.8012 2.65034 24.1641 4.02964 26.9399 6.78825C29.7158 9.54714 31.1037 12.8935 31.1037 16.8274C31.1037 18.4802 30.8461 20.0388 30.3308 21.5033C29.8155 22.968 29.0856 24.3059 28.1412 25.517L37.3499 34.7178L34.7774 37.3262Z" fill="var(--fill-0, white)"/>
</g>
</g>
</svg>
