<svg preserveAspectRatio="none" width="100%" height="100%" overflow="visible" style="display: block;" viewBox="0 0 40 40" fill="none" xmlns="http://www.w3.org/2000/svg">
<g id="stat_0">
<mask id="mask0_0_25" style="mask-type:alpha" maskUnits="userSpaceOnUse" x="0" y="0" width="40" height="40">
<rect id="Bounding box" width="40" height="40" fill="var(--fill-0, #D9D9D9)"/>
</mask>
<g mask="url(#mask0_0_25)">
<path id="&#226;&#156;&#166;" d="M20.3193 32.576C19.9318 32.576 19.6042 32.2953 19.5103 31.9193C19.2112 30.7209 18.6384 29.4464 17.7922 28.096C16.7895 26.4747 15.3602 24.9707 13.5042 23.584C11.8899 22.3639 10.2757 21.532 8.66143 21.0881C8.27911 20.983 8.00016 20.644 8.00016 20.2475C8.00016 19.8587 8.26838 19.5236 8.64218 19.4169C10.2248 18.965 11.7495 18.2314 13.2162 17.216C14.9015 16.0427 16.3095 14.6347 17.4402 12.992C18.4404 11.5287 19.127 10.0814 19.5 8.65028C19.5978 8.27536 19.9278 7.99999 20.3153 7.99999C20.7071 7.99999 21.0395 8.28146 21.1348 8.66149C21.3501 9.51946 21.6865 10.3976 22.1442 11.296C22.7202 12.4053 23.4562 13.472 24.3522 14.496C25.2695 15.4987 26.2935 16.4053 27.4242 17.216C28.9016 18.2633 30.4037 18.9991 31.9303 19.4234C32.3048 19.5275 32.5762 19.8609 32.5762 20.2496C32.5762 20.644 32.2967 20.9803 31.9162 21.0846C30.9485 21.3499 29.9524 21.7777 28.9282 22.368C27.6908 23.0933 26.5388 23.9573 25.4722 24.96C24.4055 25.9413 23.5308 26.976 22.8482 28.064C22.0002 29.4171 21.4269 30.7015 21.1283 31.9172C21.0356 32.2943 20.7076 32.576 20.3193 32.576Z" fill="var(--fill-0, white)"/>
</g>
</g>
</svg>
