<svg preserveAspectRatio="none" width="100%" height="100%" overflow="visible" style="display: block;" viewBox="0 0 40 40" fill="none" xmlns="http://www.w3.org/2000/svg">
<g id="sync_saved_locally">
<mask id="mask0_0_37" style="mask-type:alpha" maskUnits="userSpaceOnUse" x="0" y="0" width="40" height="40">
<rect id="Bounding box" width="40" height="40" fill="var(--fill-0, #D9D9D9)"/>
</mask>
<g mask="url(#mask0_0_37)">
<path id="sync_saved_locally_2" d="M18.2362 23.6517L27.9058 13.9721L25.2916 11.3625L18.2266 18.4459L14.6945 14.9275L12.0708 17.5L18.2362 23.6517ZM1.06201 35.9654V32.8817H38.9379V35.9654H1.06201ZM6.3466 30.6596C5.33437 30.6596 4.46923 30.3004 3.75118 29.5821C3.03285 28.8641 2.67368 27.9989 2.67368 26.9867V8.01336C2.67368 6.9967 3.03285 6.12781 3.75118 5.4067C4.46923 4.68558 5.33437 4.32503 6.3466 4.32503H33.6533C34.6699 4.32503 35.5388 4.68558 36.2599 5.4067C36.981 6.12781 37.3416 6.9967 37.3416 8.01336V26.9867C37.3416 27.9989 36.981 28.8641 36.2599 29.5821C35.5388 30.3004 34.6699 30.6596 33.6533 30.6596H6.3466ZM6.3466 26.9867H33.6533V8.01336H6.3466V26.9867Z" fill="var(--fill-0, white)"/>
</g>
</g>
</svg>
