<svg preserveAspectRatio="none" width="100%" height="100%" overflow="visible" style="display: block;" viewBox="0 0 32 32" fill="none" xmlns="http://www.w3.org/2000/svg">
<g id="thumbs_up_down">
<mask id="mask0_0_132" style="mask-type:alpha" maskUnits="userSpaceOnUse" x="0" y="0" width="32" height="32">
<rect id="Bounding box" width="32" height="32" fill="var(--fill-0, #D9D9D9)"/>
</mask>
<g mask="url(#mask0_0_132)">
<path id="thumbs_up_down_2" d="M2.70567 19.169C1.96344 19.169 1.32689 18.907 0.796 18.383C0.265333 17.859 0 17.2212 0 16.4697V8.30533C0 7.98844 0.061 7.68422 0.183 7.39267C0.305 7.10111 0.489778 6.823 0.737333 6.55833L7.27667 0L8.348 1.114C8.48733 1.27756 8.60033 1.44189 8.687 1.607C8.77367 1.77189 8.817 1.962 8.817 2.17733V2.469L7.87333 6.75467H14.3627C14.8704 6.75467 15.2986 6.92711 15.647 7.272C15.9954 7.61667 16.1697 8.04389 16.1697 8.55367V10.2287C16.1697 10.4102 16.1553 10.5862 16.1267 10.7567C16.0982 10.9269 16.0608 11.0642 16.0143 11.1687L13.218 17.6657C12.9798 18.2094 12.6512 18.596 12.2323 18.8253C11.8134 19.0544 11.2708 19.169 10.6043 19.169H2.70567ZM10.741 16.4697L13.5077 10.147V9.473H4.89167L5.73667 5.40533L2.70567 8.46133V16.4697H10.741ZM24.7233 32L23.6647 30.886C23.5169 30.7224 23.3997 30.5581 23.313 30.393C23.2263 30.2281 23.183 30.038 23.183 29.8227V29.531L24.139 25.233H17.6373C17.1296 25.233 16.7014 25.0631 16.353 24.7233C16.0046 24.3836 15.8303 23.9586 15.8303 23.4483V21.7713C15.8303 21.5898 15.8447 21.4138 15.8733 21.2433C15.9018 21.0731 15.9392 20.9358 15.9857 20.8313L18.782 14.3217C19.0264 13.781 19.3566 13.3973 19.7723 13.1707C20.1881 12.9442 20.7292 12.831 21.3957 12.831H29.2943C30.0366 12.831 30.6731 13.0932 31.204 13.6177C31.7347 14.1421 32 14.7756 32 15.518V23.682C32 24.0113 31.9391 24.3212 31.8173 24.6117C31.6956 24.9021 31.5149 25.1746 31.2753 25.429L24.7233 32ZM21.259 15.518L18.4923 21.853V22.527H27.1083L26.2633 26.5947L29.2943 23.5423V15.518H21.259Z" fill="var(--fill-0, #04165D)"/>
</g>
</g>
</svg>
