<svg preserveAspectRatio="none" width="100%" height="100%" overflow="visible" style="display: block;" viewBox="0 0 32 32" fill="none" xmlns="http://www.w3.org/2000/svg">
<g id="view_quilt">
<mask id="mask0_0_101" style="mask-type:alpha" maskUnits="userSpaceOnUse" x="0" y="0" width="32" height="32">
<rect id="Bounding box" width="32" height="32" fill="var(--fill-0, #D9D9D9)"/>
</mask>
<g mask="url(#mask0_0_101)">
<path id="view_quilt_2" d="M3.47233 22.9227V9.07733C3.47233 8.26578 3.76011 7.57111 4.33567 6.99333C4.911 6.41555 5.60267 6.12667 6.41067 6.12667H25.5893C26.4009 6.12667 27.0956 6.41555 27.6733 6.99333C28.2511 7.57111 28.54 8.26578 28.54 9.07733V22.9227C28.54 23.7307 28.2511 24.4223 27.6733 24.9977C27.0956 25.5732 26.4009 25.861 25.5893 25.861H6.41067C5.60267 25.861 4.911 25.5732 4.33567 24.9977C3.76011 24.4223 3.47233 23.7307 3.47233 22.9227ZM13.4627 14.6817H25.5893V9.07733H13.4627V14.6817ZM20.9293 22.9227H25.5893V17.3183H20.9293V22.9227ZM13.4627 22.9227H18.1373V17.3183H13.4627V22.9227ZM6.41067 22.9227H10.826V9.07733H6.41067V22.9227Z" fill="var(--fill-0, #04165D)"/>
</g>
</g>
</svg>
