<svg preserveAspectRatio="none" width="100%" height="100%" overflow="visible" style="display: block;" viewBox="0 0 32 32" fill="none" xmlns="http://www.w3.org/2000/svg">
<g id="workspaces">
<mask id="mask0_0_83" style="mask-type:alpha" maskUnits="userSpaceOnUse" x="0" y="0" width="32" height="32">
<rect id="Bounding box" width="32" height="32" fill="var(--fill-0, #D9D9D9)"/>
</mask>
<g mask="url(#mask0_0_83)">
<path id="workspaces_2" d="M3.537 26.8847C2.44189 25.7896 1.89433 24.4577 1.89433 22.889C1.89433 21.3201 2.44189 19.986 3.537 18.8867C4.63211 17.7873 5.96611 17.2377 7.539 17.2377C9.11211 17.2377 10.4451 17.7873 11.538 18.8867C12.6311 19.986 13.1777 21.3201 13.1777 22.889C13.1777 24.4577 12.6311 25.7896 11.538 26.8847C10.4451 27.98 9.11211 28.5277 7.539 28.5277C5.96611 28.5277 4.63211 27.98 3.537 26.8847ZM20.4903 26.8847C19.4014 25.7896 18.857 24.4577 18.857 22.889C18.857 21.3201 19.4014 19.986 20.4903 18.8867C21.5792 17.7873 22.9101 17.2377 24.483 17.2377C26.0561 17.2377 27.3902 17.7873 28.4853 18.8867C29.5804 19.986 30.128 21.3201 30.128 22.889C30.128 24.4577 29.5804 25.7896 28.4853 26.8847C27.3902 27.98 26.0561 28.5277 24.483 28.5277C22.9101 28.5277 21.5792 27.98 20.4903 26.8847ZM9.44 24.7977C9.96467 24.2697 10.227 23.635 10.227 22.8937C10.227 22.1523 9.966 21.5161 9.444 20.985C8.92178 20.4539 8.29 20.1883 7.54867 20.1883C6.80733 20.1883 6.17144 20.4523 5.641 20.9803C5.11033 21.5081 4.845 22.1427 4.845 22.884C4.845 23.6253 5.10889 24.2616 5.63667 24.7927C6.16467 25.3238 6.79933 25.5893 7.54067 25.5893C8.282 25.5893 8.91511 25.3254 9.44 24.7977ZM26.3813 24.7977C26.912 24.2697 27.1773 23.635 27.1773 22.8937C27.1773 22.1523 26.9133 21.5161 26.3853 20.985C25.8576 20.4539 25.223 20.1883 24.4817 20.1883C23.7403 20.1883 23.1072 20.4523 22.5823 20.9803C22.0577 21.5081 21.7953 22.1427 21.7953 22.884C21.7953 23.6253 22.0563 24.2616 22.5783 24.7927C23.1003 25.3238 23.732 25.5893 24.4733 25.5893C25.2147 25.5893 25.8507 25.3254 26.3813 24.7977ZM12.0263 12.6013C10.9312 11.506 10.3837 10.1719 10.3837 8.599C10.3837 7.02611 10.9312 5.69522 12.0263 4.60633C13.1214 3.51744 14.4534 2.973 16.0223 2.973C17.591 2.973 18.925 3.51744 20.0243 4.60633C21.1237 5.69522 21.6733 7.02611 21.6733 8.599C21.6733 10.1719 21.1237 11.506 20.0243 12.6013C18.925 13.6964 17.591 14.244 16.0223 14.244C14.4534 14.244 13.1214 13.6964 12.0263 12.6013ZM17.926 10.514C18.4571 9.986 18.7227 9.35133 18.7227 8.61C18.7227 7.86867 18.4587 7.23356 17.9307 6.70467C17.4029 6.17556 16.7683 5.911 16.027 5.911C15.2857 5.911 14.6494 6.17489 14.1183 6.70267C13.5872 7.23022 13.3217 7.86467 13.3217 8.606C13.3217 9.34733 13.5857 9.98267 14.1137 10.512C14.6414 11.0411 15.276 11.3057 16.0173 11.3057C16.7587 11.3057 17.3949 11.0418 17.926 10.514Z" fill="var(--fill-0, #04165D)"/>
</g>
</g>
</svg>
